<svg width="529" height="81" viewBox="0 0 529 81" fill="none" xmlns="http://www.w3.org/2000/svg">
<g filter="url(#filter0_d_142_247)">
<path d="M0 10C0 4.47715 4.47715 0 10 0H515C520.523 0 525 4.47715 525 10V67C525 72.5229 520.523 77 515 77H10C4.47715 77 0 72.5229 0 67V10Z" fill="#8CA6D9"/>
<path d="M0.3 10C0.3 4.64284 4.64284 0.3 10 0.3H515C520.357 0.3 524.7 4.64284 524.7 10V67C524.7 72.3572 520.357 76.7 515 76.7H10C4.64284 76.7 0.3 72.3572 0.3 67V10Z" stroke="black" stroke-opacity="0.55" stroke-width="0.6"/>
</g>
<defs>
<filter id="filter0_d_142_247" x="0" y="0" width="529" height="81" filterUnits="userSpaceOnUse" color-interpolation-filters="sRGB">
<feFlood flood-opacity="0" result="BackgroundImageFix"/>
<feColorMatrix in="SourceAlpha" type="matrix" values="0 0 0 0 0 0 0 0 0 0 0 0 0 0 0 0 0 0 127 0" result="hardAlpha"/>
<feOffset dx="2" dy="2"/>
<feGaussianBlur stdDeviation="1"/>
<feComposite in2="hardAlpha" operator="out"/>
<feColorMatrix type="matrix" values="0 0 0 0 0 0 0 0 0 0 0 0 0 0 0 0 0 0 0.35 0"/>
<feBlend mode="normal" in2="BackgroundImageFix" result="effect1_dropShadow_142_247"/>
<feBlend mode="normal" in="SourceGraphic" in2="effect1_dropShadow_142_247" result="shape"/>
</filter>
</defs>
</svg>
